<svg viewBox="0 0 60 69" xmlns="http://www.w3.org/2000/svg"><path d="M4 39a2 2 0 10-4 0h4zm38.907 24.848l-.922-1.775.922 1.775zm12.79-13.728l-1.835-.794 1.835.794zM28.022 11.07l.142 1.995-.142-1.995zm-17.19 7.519l1.144 1.64.12-.083.106-.1-1.37-1.457zm-3.8.926a2 2 0 001.617 2.32l17.72 3.162a2 2 0 00.703-3.938l-15.752-2.81 2.81-15.751a2 2 0 00-3.938-.703l-3.16 17.72zM0 39a30 30 0 006.735 18.94l3.102-2.525A26 26 0 014 39H0zm6.735 18.94a30 30 0 0017.181 10.437l.811-3.917a26 26 0 01-14.89-9.045l-3.102 2.526zm17.181 10.437a30 30 0 0019.913-2.755l-1.844-3.55a26 26 0 01-17.258 2.388l-.81 3.917zm19.913-2.755a30 30 0 0013.704-14.708l-3.671-1.588a26 26 0 01-11.877 12.747l1.844 3.55zm13.704-14.708a30 30 0 001.34-20.057l-3.85 1.086a26 26 0 01-1.161 17.383l3.67 1.588zm1.34-20.057A30 30 0 0047.25 14.456l-2.3 3.272a26 26 0 0110.074 14.215l3.85-1.086zM47.25 14.456a30 30 0 00-19.369-5.381l.283 3.99a26 26 0 0116.786 4.663l2.3-3.273zM27.881 9.075A30 30 0 009.464 17.13l2.738 2.916a26 26 0 0115.962-6.982l-.283-3.99zM9.69 16.948l-1.833 1.278 2.288 3.281 1.832-1.277-2.287-3.282z"/></svg>
