<svg width="64" height="64" fill="none" xmlns="http://www.w3.org/2000/svg"><path d="M2 0a2 2 0 00-2 2v18a2 2 0 104 0V4h16a2 2 0 100-4H2zm60 64a2 2 0 002-2V44a2 2 0 10-4 0v16H44a2 2 0 100 4h18zM37.164 34.336a2 2 0 10-2.828 2.828l2.828-2.828zm-10.328-4.672a2 2 0 102.828-2.828l-2.828 2.828zM.586 3.414l15 15 2.828-2.828-15-15L.586 3.414zm45 45l15 15 2.828-2.828-15-15-2.828 2.828zm-30-30l7.5 7.5 2.828-2.828-7.5-7.5-2.828 2.828zm22.5 22.5l7.5 7.5 2.828-2.828-7.5-7.5-2.828 2.828zm-3.75-3.75l3.75 3.75 2.828-2.828-3.75-3.75-2.828 2.828zm-11.25-11.25l3.75 3.75 2.828-2.828-3.75-3.75-2.828 2.828z" fill="#F8F8F8"/></svg>