<svg xmlns="http://www.w3.org/2000/svg" viewBox="0 0 60 60"><path fill="#000" stroke="#000" d="M25.416 39.535l-.01-.036-.014-.034-8.93-21.007-.003-.007-.003-.007a1.52 1.52 0 00-.573-.657 1.38 1.38 0 00-.866-.287c-.322 0-.63.071-.898.242a1.529 1.529 0 00-.582.718v.002L4.574 39.563l-.007.016-.005.016c-.051.146-.062.312-.062.458V40.172l.002.022c.03.357.161.686.423.938.286.275.67.368 1.06.368.303 0 .592-.078.842-.256.246-.176.419-.423.536-.705 0 0 0 0 0 0l2.383-5.671H20.12l2.418 5.674.003.007.003.007c.12.26.29.486.509.666l.029.024.031.02c.265.158.559.234.87.234.388 0 .742-.129 1.037-.381.322-.276.481-.647.481-1.066 0-.155-.037-.337-.084-.518zM10.947 31.94l3.938-9.388 3.994 9.388h-7.932z"/><rect width="60" height="4" rx="2"/><rect width="60" height="4" y="56" rx="2"/><rect width="26" height="4" x="32" y="38" rx="2"/><rect width="26" height="4" x="32" y="18" rx="2"/></svg>
