<svg viewBox="0 0 72 72" xmlns="http://www.w3.org/2000/svg"><path d="M30 8a2 2 0 100-4v4zm0 60a2 2 0 100-4v4zM8 8h22V4H8v4zm22 56H8v4h22v-4zM6 62V10H2v52h4zm2 2a2 2 0 01-2-2H2a6 6 0 006 6v-4zM8 4a6 6 0 00-6 6h4a2 2 0 012-2V4z" fill="#F8F8F8"/><rect x="34.5" y=".5" width="3" height="71" rx="1.5" fill="#F8F8F8" stroke="#F8F8F8"/><path d="M68 62V10M64 6H42M64 66H42" stroke="#F8F8F8" stroke-width="4" stroke-miterlimit="16" stroke-linecap="round" stroke-linejoin="round" stroke-dasharray="2 6"/></svg>
