<svg width="100" height="100" fill="none" xmlns="http://www.w3.org/2000/svg"><path fill-rule="evenodd" clip-rule="evenodd" d="M40 23c-1.364 0-2.642.481-3.583 1.425C35.477 25.368 35 26.645 35 28v3c0 .412-.134.636-.249.75-.114.115-.335.25-.75.25h-9c-1.365 0-2.643.481-3.585 1.425C20.476 34.368 20 35.645 20 37v31c0 1.355.476 2.632 1.416 3.575C22.357 72.519 23.636 73 25 73h36a2 2 0 000-4H25c-.415 0-.637-.135-.75-.25-.116-.114-.25-.338-.25-.75V37c0-.412.134-.635.249-.75.114-.115.336-.25.751-.25h9c1.364 0 2.642-.481 3.584-1.425C38.524 33.632 39 32.355 39 31v-3c0-.412.134-.636.25-.75.113-.115.335-.25.75-.25h20c.416 0 .637.135.751.25.115.114.25.338.25.75v3c0 1.355.475 2.632 1.416 3.575C63.357 35.519 64.636 36 66 36h9c.415 0 .637.135.75.249.114.115.249.338.249.751v17a2 2 0 104 0V37c0-1.355-.476-2.631-1.415-3.574C77.642 32.48 76.364 32 75 32h-9c-.415 0-.637-.135-.75-.25-.116-.114-.25-.338-.25-.75v-3c0-1.355-.476-2.632-1.416-3.575C62.642 23.481 61.364 23 60 23H40zm28 19a2 2 0 114 0 2 2 0 01-4 0zm2-4a4 4 0 100 8 4 4 0 000-8zM41 52a9 9 0 1118 0 9 9 0 01-18 0zm9-13c-7.18 0-13 5.82-13 13s5.82 13 13 13 13-5.82 13-13-5.82-13-13-13zm23 16a2 2 0 012 2v7h7a2 2 0 110 4h-7v7a2 2 0 11-4 0v-7h-7a2 2 0 110-4h7v-7a2 2 0 012-2z" fill="#F8F8F8"/></svg>