<svg viewBox="0 0 80 80" width="80" height="80" fill="none" xmlns="http://www.w3.org/2000/svg">
    <rect x=".5" y=".5" width="19" height="19" rx="3.5" stroke="#F8F8F8"/>
    <rect x=".5" y="30.5" width="19" height="19" rx="3.5" stroke="#F8F8F8"/>
    <rect x=".5" y="60.5" width="19" height="19" rx="3.5" stroke="#F8F8F8"/>
    <rect x="30.5" y=".5" width="19" height="19" rx="3.5" stroke="#F8F8F8"/>
    <rect x="30.5" y="30.5" width="19" height="19" rx="3.5" stroke="#F8F8F8"/>
    <rect x="30.5" y="60.5" width="19" height="19" rx="3.5" stroke="#F8F8F8"/>
    <rect x="60.5" y=".5" width="19" height="19" rx="3.5" stroke="#F8F8F8"/>
    <rect x="60.5" y="30.5" width="19" height="19" rx="3.5" stroke="#F8F8F8"/>
    <rect x="60.5" y="60.5" width="19" height="19" rx="3.5" stroke="#F8F8F8"/>
    <path stroke="#F8F8F8"
          d="M19.5 4.5h11v11h-11zm0 30h11v11h-11zm0 30h11v11h-11zm-15-4v-11h11v11zm0-30v-11h11v11zm30 30v-11h11v11zm0-30v-11h11v11zm30 30v-11h11v11zm0-30v-11h11v11zm-15-26h11v11h-11zm0 30h11v11h-11zm0 30h11v11h-11z"/>
    <path d="M10 4H5a1 1 0 00-1 1v5m6 66H5a1 1 0 01-1-1v-5M70 4h5a1 1 0 011 1v5" stroke="#F8F8F8" stroke-linecap="round"
          stroke-linejoin="round"/>
    <g class="numbers">
        <path id="num-1"
              d="M7.24 37.881a.6.6 0 01.3-.788l2.29-1.038a.615.615 0 01.87.56v7.23h1.723a.577.577 0 110 1.155h-4.68a.577.577 0 110-1.155h1.751v-6.324l-1.457.664a.6.6 0 01-.797-.304z"
              fill="#F8F8F8"/>
        <path id="num-2"
              d="M70 66c.502 0 .94.106 1.315.317.385.211.68.473.887.786.207.303.374.67.502 1.102.129.432.207.823.237 1.172a9.973 9.973 0 01.015 2.04c-.02.284-.064.61-.133.978a3.746 3.746 0 01-.325.979 4.22 4.22 0 01-.547.827 2.175 2.175 0 01-.813.592A2.968 2.968 0 0170 75c-.502 0-.946-.106-1.33-.317a2.485 2.485 0 01-.872-.786 4.143 4.143 0 01-.502-1.116 6.881 6.881 0 01-.252-1.172A13.38 13.38 0 0167 70.493a9.254 9.254 0 01.192-1.902c.07-.358.178-.684.325-.978.148-.294.325-.566.532-.814.207-.248.478-.44.813-.579.335-.147.714-.22 1.138-.22zm0 1.144c-.424 0-.778.18-1.064.537-.177.23-.32.607-.429 1.13a8.29 8.29 0 00-.162 1.682c0 .368.02.717.059 1.048.04.321.108.675.207 1.06.108.378.28.68.517.91.237.23.527.345.872.345 1.103 0 1.655-1.12 1.655-3.363 0-2.233-.552-3.349-1.655-3.349z"
              fill="#F8F8F8"/>
        <g id="num-3">
            <path d="M35 10.789c0-.358.29-.648.648-.648h2.003a.648.648 0 010 1.296h-2.003a.648.648 0 01-.648-.648z"
                  fill="#F8F8F0"/>
            <path d="M38.837 7.91a.607.607 0 01.312-.818l2.457-1.04a.667.667 0 01.927.615v7.178h1.89a.577.577 0 110 1.155h-5.101a.577.577 0 110-1.155h1.919V7.521l-1.618.688a.607.607 0 01-.786-.299z"
                  fill="#F8F8F8"/>
        </g>
    </g>
</svg>
