<svg width="160" height="50" fill="none" xmlns="http://www.w3.org/2000/svg"><path d="M3.759 46.344a2.304 2.304 0 01-2.304-2.304V6.893a3.237 3.237 0 015.95-1.767l10.205 15.67c1.564 2.402 5.074 2.427 6.672.047L34.855 5.097a3.256 3.256 0 015.96 1.815V44.04a2.304 2.304 0 11-4.608 0V17.397c0-1.947-2.5-2.746-3.629-1.16l-8.57 12.026c-1.622 2.276-5.018 2.23-6.577-.089l-7.709-11.46c-1.102-1.64-3.66-.86-3.66 1.115V44.04a2.304 2.304 0 01-2.303 2.304zm61.194 0a2.304 2.304 0 01-2.304-2.304V12.008a4 4 0 00-4-4H49.72a2.176 2.176 0 110-4.352h30.4a2.176 2.176 0 110 4.352h-8.864a4 4 0 00-4 4V44.04a2.304 2.304 0 01-2.304 2.304zm26.368 0a2.304 2.304 0 01-2.304-2.304V7.656a4 4 0 014-4h13.536c8.406 0 12.608 4.139 12.608 12.416 0 3.243-.874 6.016-2.624 8.32-1.142 1.476-2.538 2.588-4.189 3.337-1.298.59-1.993 2.2-1.214 3.392l7.648 11.705c.989 1.513-.097 3.518-1.903 3.518a2.274 2.274 0 01-1.91-1.039l-9.282-14.35a4 4 0 00-3.358-1.827h-4.704a4 4 0 00-4 4V44.04a2.304 2.304 0 01-2.304 2.304zm2.304-25.568a4 4 0 004 4h6.816c3.542 0 6.102-.704 7.68-2.112 1.622-1.45 2.432-3.541 2.432-6.272 0-2.56-.597-4.587-1.792-6.08-1.194-1.536-3.434-2.304-6.72-2.304h-8.416a4 4 0 00-4 4v8.768zm64.507 22.02c1.049 1.493-.019 3.548-1.844 3.548a2.253 2.253 0 01-1.841-.954l-10.104-14.323a2 2 0 00-3.272.004l-10.03 14.292a2.307 2.307 0 01-1.888.981c-1.866 0-2.959-2.102-1.888-3.63l11.012-15.704a4 4 0 00-.002-4.595l-10.679-15.21c-1.049-1.494.019-3.549 1.844-3.549.732 0 1.419.356 1.842.955l9.783 13.873a2 2 0 003.272-.004l9.711-13.842a2.304 2.304 0 011.887-.982c1.867 0 2.96 2.102 1.889 3.63l-10.693 15.256a4 4 0 00.002 4.595l10.999 15.659z" fill="#F8F8F8"/></svg>