<svg xmlns="http://www.w3.org/2000/svg" viewBox="0 0 56 60"><rect width="56" height="4" y="8" rx="2"/><rect width="4" height="20" x="32" y="26" rx="2"/><rect width="4" height="20" x="20" y="26" rx="2"/><path fill-rule="evenodd" d="M36 6a2 2 0 00-2-2H22a2 2 0 00-2 2v2h16V6zM20 0a4 4 0 00-4 4v4a4 4 0 004 4h16a4 4 0 004-4V4a4 4 0 00-4-4H20zM8 16a2 2 0 012 2v33.333C10 53.585 12.33 56 16 56h24c3.67 0 6-2.415 6-4.667V18a2 2 0 114 0v33.333C50 56.446 45.166 60 40 60H16c-5.166 0-10-3.554-10-8.667V18a2 2 0 012-2z" clip-rule="evenodd"/></svg>
