<svg viewBox="0 0 64 64" xmlns="http://www.w3.org/2000/svg"><path d="M3.414.586A2 2 0 10.586 3.414L3.414.586zm57.172 62.828a2 2 0 102.828-2.828l-2.828 2.828zM35.75 33.75a2 2 0 00-2 2v18a2 2 0 104 0v-16h16a2 2 0 100-4h-18zm-7.5-3.5a2 2 0 002-2v-18a2 2 0 10-4 0v16h-16a2 2 0 100 4h18zM.586 3.414l15 15 2.828-2.828-15-15L.586 3.414zm45 45l15 15 2.828-2.828-15-15-2.828 2.828zm-30-30l7.5 7.5 2.828-2.828-7.5-7.5-2.828 2.828zm22.5 22.5l7.5 7.5 2.828-2.828-7.5-7.5-2.828 2.828zm-3.75-3.75l3.75 3.75 2.828-2.828-3.75-3.75-2.828 2.828zm-11.25-11.25l3.75 3.75 2.828-2.828-3.75-3.75-2.828 2.828z"/></svg>
