<svg viewBox="0 0 100 100" xmlns="http://www.w3.org/2000/svg"><path d="M28 32a4 4 0 014-4h10a4 4 0 014 4v8a6 6 0 01-6 6h-8a4 4 0 01-4-4V32zm0 36a4 4 0 004 4h10a4 4 0 004-4v-8a6 6 0 00-6-6h-8a4 4 0 00-4 4v10zm44-36a4 4 0 00-4-4H58a4 4 0 00-4 4v8a6 6 0 006 6h8a4 4 0 004-4V32z"/><path class="accent" d="M72 68a4 4 0 01-4 4H58a4 4 0 01-4-4v-8a6 6 0 016-6h8a4 4 0 014 4v10z" fill="currentColor"/><path fill-rule="evenodd" clip-rule="evenodd" d="M16 13a6 6 0 00-6 6v62a6 6 0 006 6h11a2 2 0 100-4H16a2 2 0 01-2-2V19a2 2 0 012-2h11a2 2 0 100-4H16zm68 0a6 6 0 016 6v62a6 6 0 01-6 6H73a2 2 0 110-4h11a2 2 0 002-2V19a2 2 0 00-2-2H73a2 2 0 110-4h11z"/></svg>
