<svg xmlns="http://www.w3.org/2000/svg" viewBox="0 0 64 44" width="64" height="44"><path d="M46.909 7.32l1.235-1.574L46.91 7.32zm13.096 10.288l-1.235 1.573 1.235-1.573zM17.091 36.681l1.236-1.573-1.236 1.573zM3.995 26.392l-1.236 1.573 1.236-1.573zm0-8.784l-1.236-1.573 1.236 1.573zM17.09 7.319l1.236 1.573-1.236-1.573zm31.053 30.935a2 2 0 10-2.471-3.146l2.471 3.146zM58.77 24.819a2 2 0 002.47 3.146l-2.47-3.146zM45.673 8.892L58.77 19.18l2.47-3.146L48.145 5.746l-2.471 3.146zM18.327 35.108L5.23 24.82l-2.47 3.146 13.096 10.289 2.471-3.146zM5.23 19.181L18.327 8.89l-2.471-3.145-13.097 10.29L5.23 19.18zm0 5.638C4.47 24.223 4 23.181 4 22c0-1.18.47-2.223 1.23-2.82l-2.47-3.145C.858 17.528 0 19.834 0 22s.859 4.472 2.76 5.965l2.47-3.146zm40.443 10.29c-8.303 6.522-19.043 6.522-27.346 0l-2.471 3.145c9.753 7.662 22.535 7.662 32.288 0l-2.471-3.146zM58.77 19.18C59.53 19.777 60 20.819 60 22c0 1.18-.47 2.223-1.23 2.82l2.47 3.145C63.142 26.472 64 24.166 64 22s-.859-4.472-2.76-5.965l-2.47 3.146zM48.144 5.746c-9.753-7.661-22.535-7.662-32.288 0l2.471 3.146c8.303-6.523 19.043-6.523 27.346 0l2.471-3.146z"/><circle cx="32" cy="22" r="8" fill="none" stroke="currentColor" stroke-width="4"/></svg>
