<svg viewBox="0 0 52 52" xmlns="http://www.w3.org/2000/svg"><path fill-rule="evenodd" clip-rule="evenodd" d="M27.876 2.02c-.643-1.744-3.108-1.744-3.752 0l-1.657 4.485a2 2 0 01-3.154.846l-3.679-3.057c-1.428-1.187-3.563.045-3.25 1.876l.809 4.714a2 2 0 01-2.31 2.309l-4.713-.808c-1.831-.314-3.063 1.82-1.876 3.25l3.057 3.678a2 2 0 01-.846 3.154L2.02 24.124c-1.743.644-1.743 3.108 0 3.752l4.486 1.657a2 2 0 01.846 3.154l-3.057 3.679c-1.187 1.428.045 3.563 1.876 3.25l4.714-.809a2 2 0 012.309 2.31l-.808 4.713c-.314 1.831 1.82 3.064 3.25 1.876l3.678-3.057a2 2 0 013.154.846l1.657 4.486c.644 1.743 3.109 1.743 3.752 0l1.657-4.486a2 2 0 013.155-.846l3.678 3.057c1.428 1.188 3.563-.045 3.25-1.876l-.809-4.714a2 2 0 012.31-2.309l4.713.808c1.831.314 3.064-1.82 1.876-3.25l-3.057-3.678a2 2 0 01.846-3.154l4.486-1.657c1.743-.644 1.743-3.108 0-3.752l-4.486-1.657a2 2 0 01-.846-3.154l3.057-3.679c1.188-1.428-.045-3.563-1.876-3.25l-4.714.809a2 2 0 01-2.309-2.31l.808-4.713c.314-1.831-1.82-3.063-3.25-1.876L32.689 7.35a2 2 0 01-3.155-.846L27.876 2.02zM26 41.067c8.322 0 15.068-6.746 15.068-15.068S34.322 10.932 26 10.932 10.932 17.678 10.932 26 17.678 41.068 26 41.068z"/></svg>
