<svg viewBox="0 0 60 60" width="60" height="60" xmlns="http://www.w3.org/2000/svg"><path fill-rule="evenodd" clip-rule="evenodd" d="M32.414 47.414l12.728-12.728a2 2 0 10-2.828-2.828L33 41.172V6a2 2 0 10-4 0v35.172l-9.314-9.314a2 2 0 10-2.828 2.828l12.728 12.728a2 2 0 002.828 0zM4 38a2 2 0 10-4 0v13.538C0 54.237 2.399 56 4.8 56h50.4c2.401 0 4.8-1.763 4.8-4.462V38a2 2 0 10-4 0v13.538c0 .038-.013.126-.14.239-.133.116-.36.223-.66.223H4.8c-.3 0-.527-.107-.66-.223-.127-.113-.14-.201-.14-.239V38z"/></svg>
